<?xml version="1.0" encoding="UTF-8"?>
<!--Generator: Apple Native CoreSVG 341-->
<!DOCTYPE svg
PUBLIC "-//W3C//DTD SVG 1.1//EN"
       "http://www.w3.org/Graphics/SVG/1.1/DTD/svg11.dtd">
<svg version="1.1" xmlns="http://www.w3.org/2000/svg" xmlns:xlink="http://www.w3.org/1999/xlink" viewBox="0 0 112.605 88.3495">
 <g>
  <rect height="88.3495" opacity="0" width="112.605" x="0" y="0"/>
  <path d="M25.9388 88.3495C40.4479 88.3495 51.9961 70.1743 51.9961 44.1499C51.9961 18.0945 40.4788 0 25.9388 0C12.2061 0 1.14402 16.2652 0 40.1321C2.17099 35.5501 6.52989 32.7954 12.2679 32.7954C20.5479 32.7954 26.0284 38.5937 26.0284 47.188C26.0284 55.9008 20.5479 61.6801 12.2679 61.6801C7.09667 61.6801 3.02115 59.4578 0.685313 55.6418C3.53813 75.3679 13.6694 88.3495 25.9388 88.3495ZM8.26111 45.6575C9.97688 45.9752 11.5896 44.4243 12.0413 42.2448C12.4741 40.0963 11.4247 38.0319 9.60932 37.6987C7.92791 37.3655 6.19321 38.9473 5.77934 41.1113C5.35002 43.3097 6.51446 45.3741 8.26111 45.6575ZM86.5322 88.3495C101.072 88.3495 112.605 70.1898 112.605 44.1499C112.605 18.0945 101.072 0 86.5322 0C72.7995 0 61.7374 16.2652 60.5934 40.1321C62.7644 35.5501 67.1387 32.7954 72.8424 32.7954C81.1413 32.7954 86.6218 38.5937 86.6218 47.188C86.6218 55.9008 81.1413 61.6801 72.8424 61.6801C67.7055 61.6801 63.6145 59.4578 61.2787 55.6418C64.1315 75.3679 74.2628 88.3495 86.5322 88.3495ZM68.8545 45.6575C70.5513 45.9752 72.2173 44.4243 72.6347 42.2448C73.0331 40.0963 71.9837 37.9975 70.2027 37.6987C68.5213 37.3655 66.7866 38.9473 66.3727 41.1113C65.9589 43.3097 67.0735 45.3397 68.8545 45.6575Z" fill="white" fill-opacity="0.85"/>
 </g>
</svg>
